<?xml version="1.0" encoding="UTF-8" standalone="no"?><svg xmlns="http://www.w3.org/2000/svg" xmlns:xlink="http://www.w3.org/1999/xlink" clip-rule="evenodd" stroke-miterlimit="10" viewBox="0 0 1024 768"><desc>SVG generated by Keynote</desc><defs></defs><g transform="matrix(1.00, 0.00, -0.00, -1.00, 0.0, 768.0)"><path d="M 0.0 768.0 L 1024.0 768.0 L 1024.0 0.0 L 0.0 0.0 Z M 0.0 768.0 " fill="#FEFFFF"></path><image xlink:href="DD964FAB838AE3B304DAECC3A246CF96.png" width="246.00" height="173.00" transform="matrix(1.00, 0.00, -0.00, -1.00, 576.0, 245.0)"></image><g opacity="0.51"><g><clipPath id="clip0x7fb9c11174a0"><path d="M 536.0 79.0 L 861.0 79.0 L 861.0 239.0 L 536.0 239.0 Z M 536.0 79.0 "></path></clipPath><g clip-path="url(#clip0x7fb9c11174a0)"><image xlink:href="../../10A85075-1A89-4A58-BE68-C4FADBDEA824/assets/EAC1DB8926E127656058143298D3D000.png" width="322.00" height="157.00" transform="matrix(1.00, 0.00, -0.00, -1.00, 538.0, 237.0)"></image></g></g></g><image xlink:href="../../10A85075-1A89-4A58-BE68-C4FADBDEA824/assets/2BDD2B3C826D2EA307C0199CDD88384E.png" width="80.00" height="80.00" transform="matrix(0.11, 0.00, -0.00, -0.11, 56.8, 581.8)"></image><text xml:space="preserve" font-family="Helvetica,Helvetica" font-size="29.0" fill="#000000" transform="matrix(1.00, 0.00, -0.00, -1.00, 83.9, 569.6)">Q</text><text xml:space="preserve" font-family="Helvetica,Helvetica" font-size="29.0" fill="#000000" transform="matrix(1.00, 0.00, -0.00, -1.00, 106.4, 569.6)">u</text><text xml:space="preserve" font-family="Helvetica,Helvetica" font-size="29.0" fill="#000000" transform="matrix(1.00, 0.00, -0.00, -1.00, 122.6, 569.6)">e</text><text xml:space="preserve" font-family="Helvetica,Helvetica" font-size="29.0" fill="#000000" transform="matrix(1.00, 0.00, -0.00, -1.00, 138.7, 569.6)">r</text><text xml:space="preserve" font-family="Helvetica,Helvetica" font-size="29.0" fill="#000000" transform="matrix(1.00, 0.00, -0.00, -1.00, 148.3, 569.6)">y</text><text xml:space="preserve" font-family="Helvetica,Helvetica" font-size="29.0" fill="#000000" transform="matrix(1.00, 0.00, -0.00, -1.00, 162.8, 569.6)"> </text><text xml:space="preserve" font-family="Helvetica,Helvetica" font-size="29.0" fill="#000000" transform="matrix(1.00, 0.00, -0.00, -1.00, 170.9, 569.6)">r</text><text xml:space="preserve" font-family="Helvetica,Helvetica" font-size="29.0" fill="#000000" transform="matrix(1.00, 0.00, -0.00, -1.00, 180.6, 569.6)">e</text><text xml:space="preserve" font-family="Helvetica,Helvetica" font-size="29.0" fill="#000000" transform="matrix(1.00, 0.00, -0.00, -1.00, 196.7, 569.6)">c</text><text xml:space="preserve" font-family="Helvetica,Helvetica" font-size="29.0" fill="#000000" transform="matrix(1.00, 0.00, -0.00, -1.00, 211.2, 569.6)">i</text><text xml:space="preserve" font-family="Helvetica,Helvetica" font-size="29.0" fill="#000000" transform="matrix(1.00, 0.00, -0.00, -1.00, 217.6, 569.6)">p</text><text xml:space="preserve" font-family="Helvetica,Helvetica" font-size="29.0" fill="#000000" transform="matrix(1.00, 0.00, -0.00, -1.00, 233.8, 569.6)">e</text><text xml:space="preserve" font-family="Helvetica,Helvetica" font-size="29.0" fill="#000000" transform="matrix(1.00, 0.00, -0.00, -1.00, 249.9, 569.6)"> </text><text xml:space="preserve" font-family="Helvetica,Helvetica" font-size="29.0" fill="#000000" transform="matrix(1.00, 0.00, -0.00, -1.00, 256.4, 569.6)">A</text><text xml:space="preserve" font-family="Helvetica,Helvetica" font-size="29.0" fill="#000000" transform="matrix(1.00, 0.00, -0.00, -1.00, 275.7, 569.6)">P</text><text xml:space="preserve" font-family="Helvetica,Helvetica" font-size="29.0" fill="#000000" transform="matrix(1.00, 0.00, -0.00, -1.00, 295.1, 569.6)">I</text><text xml:space="preserve" font-family="Helvetica,Helvetica" font-size="29.0" fill="#000000" transform="matrix(1.00, 0.00, -0.00, -1.00, 303.1, 569.6)">s</text><image xlink:href="../../10A85075-1A89-4A58-BE68-C4FADBDEA824/assets/2BDD2B3C826D2EA307C0199CDD88384E.png" width="80.00" height="80.00" transform="matrix(0.11, 0.00, -0.00, -0.11, 56.8, 447.8)"></image><text xml:space="preserve" font-family="Helvetica,Helvetica" font-size="29.0" fill="#000000" transform="matrix(1.00, 0.00, -0.00, -1.00, 83.9, 435.6)">M</text><text xml:space="preserve" font-family="Helvetica,Helvetica" font-size="29.0" fill="#000000" transform="matrix(1.00, 0.00, -0.00, -1.00, 108.0, 435.6)">a</text><text xml:space="preserve" font-family="Helvetica,Helvetica" font-size="29.0" fill="#000000" transform="matrix(1.00, 0.00, -0.00, -1.00, 124.2, 435.6)">t</text><text xml:space="preserve" font-family="Helvetica,Helvetica" font-size="29.0" fill="#000000" transform="matrix(1.00, 0.00, -0.00, -1.00, 132.2, 435.6)">c</text><text xml:space="preserve" font-family="Helvetica,Helvetica" font-size="29.0" fill="#000000" transform="matrix(1.00, 0.00, -0.00, -1.00, 146.7, 435.6)">h</text><text xml:space="preserve" font-family="Helvetica,Helvetica" font-size="29.0" fill="#000000" transform="matrix(1.00, 0.00, -0.00, -1.00, 162.8, 435.6)"> </text><text xml:space="preserve" font-family="Helvetica,Helvetica" font-size="29.0" fill="#000000" transform="matrix(1.00, 0.00, -0.00, -1.00, 170.9, 435.6)">r</text><text xml:space="preserve" font-family="Helvetica,Helvetica" font-size="29.0" fill="#000000" transform="matrix(1.00, 0.00, -0.00, -1.00, 180.6, 435.6)">e</text><text xml:space="preserve" font-family="Helvetica,Helvetica" font-size="29.0" fill="#000000" transform="matrix(1.00, 0.00, -0.00, -1.00, 196.7, 435.6)">c</text><text xml:space="preserve" font-family="Helvetica,Helvetica" font-size="29.0" fill="#000000" transform="matrix(1.00, 0.00, -0.00, -1.00, 211.2, 435.6)">i</text><text xml:space="preserve" font-family="Helvetica,Helvetica" font-size="29.0" fill="#000000" transform="matrix(1.00, 0.00, -0.00, -1.00, 217.6, 435.6)">p</text><text xml:space="preserve" font-family="Helvetica,Helvetica" font-size="29.0" fill="#000000" transform="matrix(1.00, 0.00, -0.00, -1.00, 233.8, 435.6)">e</text><text xml:space="preserve" font-family="Helvetica,Helvetica" font-size="29.0" fill="#000000" transform="matrix(1.00, 0.00, -0.00, -1.00, 249.9, 435.6)">’</text><text xml:space="preserve" font-family="Helvetica,Helvetica" font-size="29.0" fill="#000000" transform="matrix(1.00, 0.00, -0.00, -1.00, 255.8, 435.6)">s</text><text xml:space="preserve" font-family="Helvetica,Helvetica" font-size="29.0" fill="#000000" transform="matrix(1.00, 0.00, -0.00, -1.00, 270.3, 435.6)"> </text><text xml:space="preserve" font-family="Helvetica,Helvetica" font-size="29.0" fill="#000000" transform="matrix(1.00, 0.00, -0.00, -1.00, 278.4, 435.6)">i</text><text xml:space="preserve" font-family="Helvetica,Helvetica" font-size="29.0" fill="#000000" transform="matrix(1.00, 0.00, -0.00, -1.00, 284.8, 435.6)">n</text><text xml:space="preserve" font-family="Helvetica,Helvetica" font-size="29.0" fill="#000000" transform="matrix(1.00, 0.00, -0.00, -1.00, 301.0, 435.6)">g</text><text xml:space="preserve" font-family="Helvetica,Helvetica" font-size="29.0" fill="#000000" transform="matrix(1.00, 0.00, -0.00, -1.00, 317.1, 435.6)">r</text><text xml:space="preserve" font-family="Helvetica,Helvetica" font-size="29.0" fill="#000000" transform="matrix(1.00, 0.00, -0.00, -1.00, 326.8, 435.6)">e</text><text xml:space="preserve" font-family="Helvetica,Helvetica" font-size="29.0" fill="#000000" transform="matrix(1.00, 0.00, -0.00, -1.00, 342.9, 435.6)">d</text><text xml:space="preserve" font-family="Helvetica,Helvetica" font-size="29.0" fill="#000000" transform="matrix(1.00, 0.00, -0.00, -1.00, 359.0, 435.6)">i</text><text xml:space="preserve" font-family="Helvetica,Helvetica" font-size="29.0" fill="#000000" transform="matrix(1.00, 0.00, -0.00, -1.00, 365.5, 435.6)">e</text><text xml:space="preserve" font-family="Helvetica,Helvetica" font-size="29.0" fill="#000000" transform="matrix(1.00, 0.00, -0.00, -1.00, 381.6, 435.6)">n</text><text xml:space="preserve" font-family="Helvetica,Helvetica" font-size="29.0" fill="#000000" transform="matrix(1.00, 0.00, -0.00, -1.00, 397.8, 435.6)">t</text><text xml:space="preserve" font-family="Helvetica,Helvetica" font-size="29.0" fill="#000000" transform="matrix(1.00, 0.00, -0.00, -1.00, 405.8, 435.6)">s</text><text xml:space="preserve" font-family="Helvetica,Helvetica" font-size="29.0" fill="#000000" transform="matrix(1.00, 0.00, -0.00, -1.00, 420.3, 435.6)"> </text><text xml:space="preserve" font-family="Helvetica,Helvetica" font-size="29.0" fill="#000000" transform="matrix(1.00, 0.00, -0.00, -1.00, 428.4, 435.6)">w</text><text xml:space="preserve" font-family="Helvetica,Helvetica" font-size="29.0" fill="#000000" transform="matrix(1.00, 0.00, -0.00, -1.00, 449.3, 435.6)">i</text><text xml:space="preserve" font-family="Helvetica,Helvetica" font-size="29.0" fill="#000000" transform="matrix(1.00, 0.00, -0.00, -1.00, 455.8, 435.6)">t</text><text xml:space="preserve" font-family="Helvetica,Helvetica" font-size="29.0" fill="#000000" transform="matrix(1.00, 0.00, -0.00, -1.00, 463.8, 435.6)">h</text><text xml:space="preserve" font-family="Helvetica,Helvetica" font-size="29.0" fill="#000000" transform="matrix(1.00, 0.00, -0.00, -1.00, 479.9, 435.6)"> </text><text xml:space="preserve" font-family="Helvetica,Helvetica" font-size="29.0" fill="#000000" transform="matrix(1.00, 0.00, -0.00, -1.00, 83.9, 400.6)">i</text><text xml:space="preserve" font-family="Helvetica,Helvetica" font-size="29.0" fill="#000000" transform="matrix(1.00, 0.00, -0.00, -1.00, 90.3, 400.6)">n</text><text xml:space="preserve" font-family="Helvetica,Helvetica" font-size="29.0" fill="#000000" transform="matrix(1.00, 0.00, -0.00, -1.00, 106.5, 400.6)">g</text><text xml:space="preserve" font-family="Helvetica,Helvetica" font-size="29.0" fill="#000000" transform="matrix(1.00, 0.00, -0.00, -1.00, 122.6, 400.6)">r</text><text xml:space="preserve" font-family="Helvetica,Helvetica" font-size="29.0" fill="#000000" transform="matrix(1.00, 0.00, -0.00, -1.00, 132.2, 400.6)">e</text><text xml:space="preserve" font-family="Helvetica,Helvetica" font-size="29.0" fill="#000000" transform="matrix(1.00, 0.00, -0.00, -1.00, 148.4, 400.6)">d</text><text xml:space="preserve" font-family="Helvetica,Helvetica" font-size="29.0" fill="#000000" transform="matrix(1.00, 0.00, -0.00, -1.00, 164.5, 400.6)">i</text><text xml:space="preserve" font-family="Helvetica,Helvetica" font-size="29.0" fill="#000000" transform="matrix(1.00, 0.00, -0.00, -1.00, 171.0, 400.6)">e</text><text xml:space="preserve" font-family="Helvetica,Helvetica" font-size="29.0" fill="#000000" transform="matrix(1.00, 0.00, -0.00, -1.00, 187.1, 400.6)">n</text><text xml:space="preserve" font-family="Helvetica,Helvetica" font-size="29.0" fill="#000000" transform="matrix(1.00, 0.00, -0.00, -1.00, 203.2, 400.6)">t</text><text xml:space="preserve" font-family="Helvetica,Helvetica" font-size="29.0" fill="#000000" transform="matrix(1.00, 0.00, -0.00, -1.00, 211.3, 400.6)">s</text><text xml:space="preserve" font-family="Helvetica,Helvetica" font-size="29.0" fill="#000000" transform="matrix(1.00, 0.00, -0.00, -1.00, 225.8, 400.6)"> </text><text xml:space="preserve" font-family="Helvetica,Helvetica" font-size="29.0" fill="#000000" transform="matrix(1.00, 0.00, -0.00, -1.00, 233.8, 400.6)">i</text><text xml:space="preserve" font-family="Helvetica,Helvetica" font-size="29.0" fill="#000000" transform="matrix(1.00, 0.00, -0.00, -1.00, 240.3, 400.6)">n</text><text xml:space="preserve" font-family="Helvetica,Helvetica" font-size="29.0" fill="#000000" transform="matrix(1.00, 0.00, -0.00, -1.00, 256.4, 400.6)"> </text><text xml:space="preserve" font-family="Helvetica,Helvetica" font-size="29.0" fill="#000000" transform="matrix(1.00, 0.00, -0.00, -1.00, 264.5, 400.6)">d</text><text xml:space="preserve" font-family="Helvetica,Helvetica" font-size="29.0" fill="#000000" transform="matrix(1.00, 0.00, -0.00, -1.00, 280.6, 400.6)">a</text><text xml:space="preserve" font-family="Helvetica,Helvetica" font-size="29.0" fill="#000000" transform="matrix(1.00, 0.00, -0.00, -1.00, 296.7, 400.6)">t</text><text xml:space="preserve" font-family="Helvetica,Helvetica" font-size="29.0" fill="#000000" transform="matrix(1.00, 0.00, -0.00, -1.00, 304.8, 400.6)">a</text><text xml:space="preserve" font-family="Helvetica,Helvetica" font-size="29.0" fill="#000000" transform="matrix(1.00, 0.00, -0.00, -1.00, 320.9, 400.6)">b</text><text xml:space="preserve" font-family="Helvetica,Helvetica" font-size="29.0" fill="#000000" transform="matrix(1.00, 0.00, -0.00, -1.00, 337.1, 400.6)">a</text><text xml:space="preserve" font-family="Helvetica,Helvetica" font-size="29.0" fill="#000000" transform="matrix(1.00, 0.00, -0.00, -1.00, 353.2, 400.6)">s</text><text xml:space="preserve" font-family="Helvetica,Helvetica" font-size="29.0" fill="#000000" transform="matrix(1.00, 0.00, -0.00, -1.00, 367.7, 400.6)">e</text><image xlink:href="../../10A85075-1A89-4A58-BE68-C4FADBDEA824/assets/2BDD2B3C826D2EA307C0199CDD88384E.png" width="80.00" height="80.00" transform="matrix(0.11, 0.00, -0.00, -0.11, 56.8, 345.8)"></image><text xml:space="preserve" font-family="Helvetica,Helvetica" font-size="29.0" fill="#000000" transform="matrix(1.00, 0.00, -0.00, -1.00, 83.9, 333.6)">G</text><text xml:space="preserve" font-family="Helvetica,Helvetica" font-size="29.0" fill="#000000" transform="matrix(1.00, 0.00, -0.00, -1.00, 106.4, 333.6)">a</text><text xml:space="preserve" font-family="Helvetica,Helvetica" font-size="29.0" fill="#000000" transform="matrix(1.00, 0.00, -0.00, -1.00, 122.6, 333.6)">t</text><text xml:space="preserve" font-family="Helvetica,Helvetica" font-size="29.0" fill="#000000" transform="matrix(1.00, 0.00, -0.00, -1.00, 130.6, 333.6)">h</text><text xml:space="preserve" font-family="Helvetica,Helvetica" font-size="29.0" fill="#000000" transform="matrix(1.00, 0.00, -0.00, -1.00, 146.7, 333.6)">e</text><text xml:space="preserve" font-family="Helvetica,Helvetica" font-size="29.0" fill="#000000" transform="matrix(1.00, 0.00, -0.00, -1.00, 162.9, 333.6)">r</text><text xml:space="preserve" font-family="Helvetica,Helvetica" font-size="29.0" fill="#000000" transform="matrix(1.00, 0.00, -0.00, -1.00, 172.5, 333.6)"> </text><text xml:space="preserve" font-family="Helvetica,Helvetica" font-size="29.0" fill="#000000" transform="matrix(1.00, 0.00, -0.00, -1.00, 180.6, 333.6)">a</text><text xml:space="preserve" font-family="Helvetica,Helvetica" font-size="29.0" fill="#000000" transform="matrix(1.00, 0.00, -0.00, -1.00, 196.7, 333.6)">d</text><text xml:space="preserve" font-family="Helvetica,Helvetica" font-size="29.0" fill="#000000" transform="matrix(1.00, 0.00, -0.00, -1.00, 212.9, 333.6)">j</text><text xml:space="preserve" font-family="Helvetica,Helvetica" font-size="29.0" fill="#000000" transform="matrix(1.00, 0.00, -0.00, -1.00, 219.3, 333.6)">e</text><text xml:space="preserve" font-family="Helvetica,Helvetica" font-size="29.0" fill="#000000" transform="matrix(1.00, 0.00, -0.00, -1.00, 235.4, 333.6)">c</text><text xml:space="preserve" font-family="Helvetica,Helvetica" font-size="29.0" fill="#000000" transform="matrix(1.00, 0.00, -0.00, -1.00, 249.9, 333.6)">t</text><text xml:space="preserve" font-family="Helvetica,Helvetica" font-size="29.0" fill="#000000" transform="matrix(1.00, 0.00, -0.00, -1.00, 258.0, 333.6)">i</text><text xml:space="preserve" font-family="Helvetica,Helvetica" font-size="29.0" fill="#000000" transform="matrix(1.00, 0.00, -0.00, -1.00, 264.4, 333.6)">v</text><text xml:space="preserve" font-family="Helvetica,Helvetica" font-size="29.0" fill="#000000" transform="matrix(1.00, 0.00, -0.00, -1.00, 278.9, 333.6)">e</text><text xml:space="preserve" font-family="Helvetica,Helvetica" font-size="29.0" fill="#000000" transform="matrix(1.00, 0.00, -0.00, -1.00, 295.1, 333.6)">s</text><text xml:space="preserve" font-family="Helvetica,Helvetica" font-size="29.0" fill="#000000" transform="matrix(1.00, 0.00, -0.00, -1.00, 309.6, 333.6)"> </text><text xml:space="preserve" font-family="Helvetica,Helvetica" font-size="29.0" fill="#000000" transform="matrix(1.00, 0.00, -0.00, -1.00, 317.6, 333.6)">a</text><text xml:space="preserve" font-family="Helvetica,Helvetica" font-size="29.0" fill="#000000" transform="matrix(1.00, 0.00, -0.00, -1.00, 333.8, 333.6)">n</text><text xml:space="preserve" font-family="Helvetica,Helvetica" font-size="29.0" fill="#000000" transform="matrix(1.00, 0.00, -0.00, -1.00, 349.9, 333.6)">d</text><text xml:space="preserve" font-family="Helvetica,Helvetica" font-size="29.0" fill="#000000" transform="matrix(1.00, 0.00, -0.00, -1.00, 366.0, 333.6)"> </text><text xml:space="preserve" font-family="Helvetica,Helvetica" font-size="29.0" fill="#000000" transform="matrix(1.00, 0.00, -0.00, -1.00, 374.1, 333.6)">t</text><text xml:space="preserve" font-family="Helvetica,Helvetica" font-size="29.0" fill="#000000" transform="matrix(1.00, 0.00, -0.00, -1.00, 382.1, 333.6)">h</text><text xml:space="preserve" font-family="Helvetica,Helvetica" font-size="29.0" fill="#000000" transform="matrix(1.00, 0.00, -0.00, -1.00, 398.3, 333.6)">e</text><text xml:space="preserve" font-family="Helvetica,Helvetica" font-size="29.0" fill="#000000" transform="matrix(1.00, 0.00, -0.00, -1.00, 414.4, 333.6)">i</text><text xml:space="preserve" font-family="Helvetica,Helvetica" font-size="29.0" fill="#000000" transform="matrix(1.00, 0.00, -0.00, -1.00, 420.8, 333.6)">r</text><text xml:space="preserve" font-family="Helvetica,Helvetica" font-size="29.0" fill="#000000" transform="matrix(1.00, 0.00, -0.00, -1.00, 430.5, 333.6)"> </text><text xml:space="preserve" font-family="Helvetica,Helvetica" font-size="29.0" fill="#000000" transform="matrix(1.00, 0.00, -0.00, -1.00, 83.9, 298.6)">s</text><text xml:space="preserve" font-family="Helvetica,Helvetica" font-size="29.0" fill="#000000" transform="matrix(1.00, 0.00, -0.00, -1.00, 98.4, 298.6)">y</text><text xml:space="preserve" font-family="Helvetica,Helvetica" font-size="29.0" fill="#000000" transform="matrix(1.00, 0.00, -0.00, -1.00, 112.9, 298.6)">n</text><text xml:space="preserve" font-family="Helvetica,Helvetica" font-size="29.0" fill="#000000" transform="matrix(1.00, 0.00, -0.00, -1.00, 129.0, 298.6)">o</text><text xml:space="preserve" font-family="Helvetica,Helvetica" font-size="29.0" fill="#000000" transform="matrix(1.00, 0.00, -0.00, -1.00, 145.1, 298.6)">n</text><text xml:space="preserve" font-family="Helvetica,Helvetica" font-size="29.0" fill="#000000" transform="matrix(1.00, 0.00, -0.00, -1.00, 161.3, 298.6)">y</text><text xml:space="preserve" font-family="Helvetica,Helvetica" font-size="29.0" fill="#000000" transform="matrix(1.00, 0.00, -0.00, -1.00, 175.8, 298.6)">m</text><text xml:space="preserve" font-family="Helvetica,Helvetica" font-size="29.0" fill="#000000" transform="matrix(1.00, 0.00, -0.00, -1.00, 199.9, 298.6)">s</text><text xml:space="preserve" font-family="Helvetica,Helvetica" font-size="29.0" fill="#000000" transform="matrix(1.00, 0.00, -0.00, -1.00, 214.4, 298.6)"> </text><text xml:space="preserve" font-family="Helvetica,Helvetica" font-size="29.0" fill="#000000" transform="matrix(1.00, 0.00, -0.00, -1.00, 222.5, 298.6)">f</text><text xml:space="preserve" font-family="Helvetica,Helvetica" font-size="29.0" fill="#000000" transform="matrix(1.00, 0.00, -0.00, -1.00, 230.5, 298.6)">o</text><text xml:space="preserve" font-family="Helvetica,Helvetica" font-size="29.0" fill="#000000" transform="matrix(1.00, 0.00, -0.00, -1.00, 246.7, 298.6)">r</text><text xml:space="preserve" font-family="Helvetica,Helvetica" font-size="29.0" fill="#000000" transform="matrix(1.00, 0.00, -0.00, -1.00, 256.3, 298.6)"> </text><text xml:space="preserve" font-family="Helvetica,Helvetica" font-size="29.0" fill="#000000" transform="matrix(1.00, 0.00, -0.00, -1.00, 264.4, 298.6)">e</text><text xml:space="preserve" font-family="Helvetica,Helvetica" font-size="29.0" fill="#000000" transform="matrix(1.00, 0.00, -0.00, -1.00, 280.5, 298.6)">a</text><text xml:space="preserve" font-family="Helvetica,Helvetica" font-size="29.0" fill="#000000" transform="matrix(1.00, 0.00, -0.00, -1.00, 296.6, 298.6)">c</text><text xml:space="preserve" font-family="Helvetica,Helvetica" font-size="29.0" fill="#000000" transform="matrix(1.00, 0.00, -0.00, -1.00, 311.1, 298.6)">h</text><text xml:space="preserve" font-family="Helvetica,Helvetica" font-size="29.0" fill="#000000" transform="matrix(1.00, 0.00, -0.00, -1.00, 327.3, 298.6)"> </text><text xml:space="preserve" font-family="Helvetica,Helvetica" font-size="29.0" fill="#000000" transform="matrix(1.00, 0.00, -0.00, -1.00, 335.3, 298.6)">i</text><text xml:space="preserve" font-family="Helvetica,Helvetica" font-size="29.0" fill="#000000" transform="matrix(1.00, 0.00, -0.00, -1.00, 341.8, 298.6)">n</text><text xml:space="preserve" font-family="Helvetica,Helvetica" font-size="29.0" fill="#000000" transform="matrix(1.00, 0.00, -0.00, -1.00, 357.9, 298.6)">g</text><text xml:space="preserve" font-family="Helvetica,Helvetica" font-size="29.0" fill="#000000" transform="matrix(1.00, 0.00, -0.00, -1.00, 374.0, 298.6)">r</text><text xml:space="preserve" font-family="Helvetica,Helvetica" font-size="29.0" fill="#000000" transform="matrix(1.00, 0.00, -0.00, -1.00, 383.7, 298.6)">e</text><text xml:space="preserve" font-family="Helvetica,Helvetica" font-size="29.0" fill="#000000" transform="matrix(1.00, 0.00, -0.00, -1.00, 399.8, 298.6)">d</text><text xml:space="preserve" font-family="Helvetica,Helvetica" font-size="29.0" fill="#000000" transform="matrix(1.00, 0.00, -0.00, -1.00, 416.0, 298.6)">i</text><text xml:space="preserve" font-family="Helvetica,Helvetica" font-size="29.0" fill="#000000" transform="matrix(1.00, 0.00, -0.00, -1.00, 422.4, 298.6)">e</text><text xml:space="preserve" font-family="Helvetica,Helvetica" font-size="29.0" fill="#000000" transform="matrix(1.00, 0.00, -0.00, -1.00, 438.6, 298.6)">n</text><text xml:space="preserve" font-family="Helvetica,Helvetica" font-size="29.0" fill="#000000" transform="matrix(1.00, 0.00, -0.00, -1.00, 454.7, 298.6)">t</text><text xml:space="preserve" font-family="Helvetica,Helvetica" font-size="29.0" fill="#000000" transform="matrix(1.00, 0.00, -0.00, -1.00, 462.7, 298.6)">,</text><text xml:space="preserve" font-family="Helvetica,Helvetica" font-size="29.0" fill="#000000" transform="matrix(1.00, 0.00, -0.00, -1.00, 470.8, 298.6)"> </text><text xml:space="preserve" font-family="Helvetica,Helvetica" font-size="29.0" fill="#000000" transform="matrix(1.00, 0.00, -0.00, -1.00, 83.9, 263.6)">w</text><text xml:space="preserve" font-family="Helvetica,Helvetica" font-size="29.0" fill="#000000" transform="matrix(1.00, 0.00, -0.00, -1.00, 104.8, 263.6)">h</text><text xml:space="preserve" font-family="Helvetica,Helvetica" font-size="29.0" fill="#000000" transform="matrix(1.00, 0.00, -0.00, -1.00, 121.0, 263.6)">i</text><text xml:space="preserve" font-family="Helvetica,Helvetica" font-size="29.0" fill="#000000" transform="matrix(1.00, 0.00, -0.00, -1.00, 127.4, 263.6)">c</text><text xml:space="preserve" font-family="Helvetica,Helvetica" font-size="29.0" fill="#000000" transform="matrix(1.00, 0.00, -0.00, -1.00, 141.9, 263.6)">h</text><text xml:space="preserve" font-family="Helvetica,Helvetica" font-size="29.0" fill="#000000" transform="matrix(1.00, 0.00, -0.00, -1.00, 158.0, 263.6)"> </text><text xml:space="preserve" font-family="Helvetica,Helvetica" font-size="29.0" fill="#000000" transform="matrix(1.00, 0.00, -0.00, -1.00, 166.1, 263.6)">b</text><text xml:space="preserve" font-family="Helvetica,Helvetica" font-size="29.0" fill="#000000" transform="matrix(1.00, 0.00, -0.00, -1.00, 182.2, 263.6)">e</text><text xml:space="preserve" font-family="Helvetica,Helvetica" font-size="29.0" fill="#000000" transform="matrix(1.00, 0.00, -0.00, -1.00, 198.4, 263.6)">c</text><text xml:space="preserve" font-family="Helvetica,Helvetica" font-size="29.0" fill="#000000" transform="matrix(1.00, 0.00, -0.00, -1.00, 212.9, 263.6)">o</text><text xml:space="preserve" font-family="Helvetica,Helvetica" font-size="29.0" fill="#000000" transform="matrix(1.00, 0.00, -0.00, -1.00, 229.0, 263.6)">m</text><text xml:space="preserve" font-family="Helvetica,Helvetica" font-size="29.0" fill="#000000" transform="matrix(1.00, 0.00, -0.00, -1.00, 253.1, 263.6)">e</text><text xml:space="preserve" font-family="Helvetica,Helvetica" font-size="29.0" fill="#000000" transform="matrix(1.00, 0.00, -0.00, -1.00, 269.3, 263.6)">s</text><text xml:space="preserve" font-family="Helvetica,Helvetica" font-size="29.0" fill="#000000" transform="matrix(1.00, 0.00, -0.00, -1.00, 283.8, 263.6)"> </text><text xml:space="preserve" font-family="Helvetica,Helvetica" font-size="29.0" fill="#000000" transform="matrix(1.00, 0.00, -0.00, -1.00, 291.8, 263.6)">“</text><text xml:space="preserve" font-family="Helvetica,Helvetica" font-size="29.0" fill="#000000" transform="matrix(1.00, 0.00, -0.00, -1.00, 301.5, 263.6)">a</text><text xml:space="preserve" font-family="Helvetica,Helvetica" font-size="29.0" fill="#000000" transform="matrix(1.00, 0.00, -0.00, -1.00, 317.6, 263.6)">d</text><text xml:space="preserve" font-family="Helvetica,Helvetica" font-size="29.0" fill="#000000" transform="matrix(1.00, 0.00, -0.00, -1.00, 333.8, 263.6)">j</text><text xml:space="preserve" font-family="Helvetica,Helvetica" font-size="29.0" fill="#000000" transform="matrix(1.00, 0.00, -0.00, -1.00, 340.2, 263.6)">e</text><text xml:space="preserve" font-family="Helvetica,Helvetica" font-size="29.0" fill="#000000" transform="matrix(1.00, 0.00, -0.00, -1.00, 356.3, 263.6)">c</text><text xml:space="preserve" font-family="Helvetica,Helvetica" font-size="29.0" fill="#000000" transform="matrix(1.00, 0.00, -0.00, -1.00, 370.8, 263.6)">t</text><text xml:space="preserve" font-family="Helvetica,Helvetica" font-size="29.0" fill="#000000" transform="matrix(1.00, 0.00, -0.00, -1.00, 378.9, 263.6)">i</text><text xml:space="preserve" font-family="Helvetica,Helvetica" font-size="29.0" fill="#000000" transform="matrix(1.00, 0.00, -0.00, -1.00, 385.3, 263.6)">v</text><text xml:space="preserve" font-family="Helvetica,Helvetica" font-size="29.0" fill="#000000" transform="matrix(1.00, 0.00, -0.00, -1.00, 399.8, 263.6)">e</text><text xml:space="preserve" font-family="Helvetica,Helvetica" font-size="29.0" fill="#000000" transform="matrix(1.00, 0.00, -0.00, -1.00, 416.0, 263.6)"> </text><text xml:space="preserve" font-family="Helvetica,Helvetica" font-size="29.0" fill="#000000" transform="matrix(1.00, 0.00, -0.00, -1.00, 83.9, 228.6)">r</text><text xml:space="preserve" font-family="Helvetica,Helvetica" font-size="29.0" fill="#000000" transform="matrix(1.00, 0.00, -0.00, -1.00, 93.5, 228.6)">e</text><text xml:space="preserve" font-family="Helvetica,Helvetica" font-size="29.0" fill="#000000" transform="matrix(1.00, 0.00, -0.00, -1.00, 109.7, 228.6)">p</text><text xml:space="preserve" font-family="Helvetica,Helvetica" font-size="29.0" fill="#000000" transform="matrix(1.00, 0.00, -0.00, -1.00, 125.8, 228.6)">r</text><text xml:space="preserve" font-family="Helvetica,Helvetica" font-size="29.0" fill="#000000" transform="matrix(1.00, 0.00, -0.00, -1.00, 135.5, 228.6)">e</text><text xml:space="preserve" font-family="Helvetica,Helvetica" font-size="29.0" fill="#000000" transform="matrix(1.00, 0.00, -0.00, -1.00, 151.6, 228.6)">s</text><text xml:space="preserve" font-family="Helvetica,Helvetica" font-size="29.0" fill="#000000" transform="matrix(1.00, 0.00, -0.00, -1.00, 166.1, 228.6)">e</text><text xml:space="preserve" font-family="Helvetica,Helvetica" font-size="29.0" fill="#000000" transform="matrix(1.00, 0.00, -0.00, -1.00, 182.2, 228.6)">n</text><text xml:space="preserve" font-family="Helvetica,Helvetica" font-size="29.0" fill="#000000" transform="matrix(1.00, 0.00, -0.00, -1.00, 198.4, 228.6)">t</text><text xml:space="preserve" font-family="Helvetica,Helvetica" font-size="29.0" fill="#000000" transform="matrix(1.00, 0.00, -0.00, -1.00, 206.4, 228.6)">a</text><text xml:space="preserve" font-family="Helvetica,Helvetica" font-size="29.0" fill="#000000" transform="matrix(1.00, 0.00, -0.00, -1.00, 222.5, 228.6)">t</text><text xml:space="preserve" font-family="Helvetica,Helvetica" font-size="29.0" fill="#000000" transform="matrix(1.00, 0.00, -0.00, -1.00, 230.6, 228.6)">i</text><text xml:space="preserve" font-family="Helvetica,Helvetica" font-size="29.0" fill="#000000" transform="matrix(1.00, 0.00, -0.00, -1.00, 237.0, 228.6)">o</text><text xml:space="preserve" font-family="Helvetica,Helvetica" font-size="29.0" fill="#000000" transform="matrix(1.00, 0.00, -0.00, -1.00, 253.2, 228.6)">n</text><text xml:space="preserve" font-family="Helvetica,Helvetica" font-size="29.0" fill="#000000" transform="matrix(1.00, 0.00, -0.00, -1.00, 269.3, 228.6)">”</text><text xml:space="preserve" font-family="Helvetica,Helvetica" font-size="29.0" fill="#000000" transform="matrix(1.00, 0.00, -0.00, -1.00, 279.0, 228.6)"> </text><text xml:space="preserve" font-family="Helvetica,Helvetica" font-size="29.0" fill="#000000" transform="matrix(1.00, 0.00, -0.00, -1.00, 287.0, 228.6)">o</text><text xml:space="preserve" font-family="Helvetica,Helvetica" font-size="29.0" fill="#000000" transform="matrix(1.00, 0.00, -0.00, -1.00, 303.2, 228.6)">f</text><text xml:space="preserve" font-family="Helvetica,Helvetica" font-size="29.0" fill="#000000" transform="matrix(1.00, 0.00, -0.00, -1.00, 311.2, 228.6)"> </text><text xml:space="preserve" font-family="Helvetica,Helvetica" font-size="29.0" fill="#000000" transform="matrix(1.00, 0.00, -0.00, -1.00, 319.3, 228.6)">a</text><text xml:space="preserve" font-family="Helvetica,Helvetica" font-size="29.0" fill="#000000" transform="matrix(1.00, 0.00, -0.00, -1.00, 335.4, 228.6)"> </text><text xml:space="preserve" font-family="Helvetica,Helvetica" font-size="29.0" fill="#000000" transform="matrix(1.00, 0.00, -0.00, -1.00, 343.4, 228.6)">r</text><text xml:space="preserve" font-family="Helvetica,Helvetica" font-size="29.0" fill="#000000" transform="matrix(1.00, 0.00, -0.00, -1.00, 353.1, 228.6)">e</text><text xml:space="preserve" font-family="Helvetica,Helvetica" font-size="29.0" fill="#000000" transform="matrix(1.00, 0.00, -0.00, -1.00, 369.2, 228.6)">c</text><text xml:space="preserve" font-family="Helvetica,Helvetica" font-size="29.0" fill="#000000" transform="matrix(1.00, 0.00, -0.00, -1.00, 383.7, 228.6)">i</text><text xml:space="preserve" font-family="Helvetica,Helvetica" font-size="29.0" fill="#000000" transform="matrix(1.00, 0.00, -0.00, -1.00, 390.2, 228.6)">p</text><text xml:space="preserve" font-family="Helvetica,Helvetica" font-size="29.0" fill="#000000" transform="matrix(1.00, 0.00, -0.00, -1.00, 406.3, 228.6)">e</text><image xlink:href="../../10A85075-1A89-4A58-BE68-C4FADBDEA824/assets/2BDD2B3C826D2EA307C0199CDD88384E.png" width="80.00" height="80.00" transform="matrix(0.11, 0.00, -0.00, -0.11, 56.8, 173.8)"></image><text xml:space="preserve" font-family="Helvetica,Helvetica" font-size="29.0" fill="#000000" transform="matrix(1.00, 0.00, -0.00, -1.00, 83.9, 161.6)">C</text><text xml:space="preserve" font-family="Helvetica,Helvetica" font-size="29.0" fill="#000000" transform="matrix(1.00, 0.00, -0.00, -1.00, 104.8, 161.6)">o</text><text xml:space="preserve" font-family="Helvetica,Helvetica" font-size="29.0" fill="#000000" transform="matrix(1.00, 0.00, -0.00, -1.00, 121.0, 161.6)">u</text><text xml:space="preserve" font-family="Helvetica,Helvetica" font-size="29.0" fill="#000000" transform="matrix(1.00, 0.00, -0.00, -1.00, 137.1, 161.6)">n</text><text xml:space="preserve" font-family="Helvetica,Helvetica" font-size="29.0" fill="#000000" transform="matrix(1.00, 0.00, -0.00, -1.00, 153.2, 161.6)">t</text><text xml:space="preserve" font-family="Helvetica,Helvetica" font-size="29.0" fill="#000000" transform="matrix(1.00, 0.00, -0.00, -1.00, 161.3, 161.6)"> </text><text xml:space="preserve" font-family="Helvetica,Helvetica" font-size="29.0" fill="#000000" transform="matrix(1.00, 0.00, -0.00, -1.00, 169.3, 161.6)">r</text><text xml:space="preserve" font-family="Helvetica,Helvetica" font-size="29.0" fill="#000000" transform="matrix(1.00, 0.00, -0.00, -1.00, 179.0, 161.6)">e</text><text xml:space="preserve" font-family="Helvetica,Helvetica" font-size="29.0" fill="#000000" transform="matrix(1.00, 0.00, -0.00, -1.00, 195.1, 161.6)">c</text><text xml:space="preserve" font-family="Helvetica,Helvetica" font-size="29.0" fill="#000000" transform="matrix(1.00, 0.00, -0.00, -1.00, 209.6, 161.6)">i</text><text xml:space="preserve" font-family="Helvetica,Helvetica" font-size="29.0" fill="#000000" transform="matrix(1.00, 0.00, -0.00, -1.00, 216.1, 161.6)">p</text><text xml:space="preserve" font-family="Helvetica,Helvetica" font-size="29.0" fill="#000000" transform="matrix(1.00, 0.00, -0.00, -1.00, 232.2, 161.6)">e</text><text xml:space="preserve" font-family="Helvetica,Helvetica" font-size="29.0" fill="#000000" transform="matrix(1.00, 0.00, -0.00, -1.00, 248.3, 161.6)"> </text><text xml:space="preserve" font-family="Helvetica,Helvetica" font-size="29.0" fill="#000000" transform="matrix(1.00, 0.00, -0.00, -1.00, 256.4, 161.6)">a</text><text xml:space="preserve" font-family="Helvetica,Helvetica" font-size="29.0" fill="#000000" transform="matrix(1.00, 0.00, -0.00, -1.00, 272.5, 161.6)">d</text><text xml:space="preserve" font-family="Helvetica,Helvetica" font-size="29.0" fill="#000000" transform="matrix(1.00, 0.00, -0.00, -1.00, 288.7, 161.6)">j</text><text xml:space="preserve" font-family="Helvetica,Helvetica" font-size="29.0" fill="#000000" transform="matrix(1.00, 0.00, -0.00, -1.00, 295.1, 161.6)">e</text><text xml:space="preserve" font-family="Helvetica,Helvetica" font-size="29.0" fill="#000000" transform="matrix(1.00, 0.00, -0.00, -1.00, 311.2, 161.6)">c</text><text xml:space="preserve" font-family="Helvetica,Helvetica" font-size="29.0" fill="#000000" transform="matrix(1.00, 0.00, -0.00, -1.00, 325.7, 161.6)">t</text><text xml:space="preserve" font-family="Helvetica,Helvetica" font-size="29.0" fill="#000000" transform="matrix(1.00, 0.00, -0.00, -1.00, 333.8, 161.6)">i</text><text xml:space="preserve" font-family="Helvetica,Helvetica" font-size="29.0" fill="#000000" transform="matrix(1.00, 0.00, -0.00, -1.00, 340.2, 161.6)">v</text><text xml:space="preserve" font-family="Helvetica,Helvetica" font-size="29.0" fill="#000000" transform="matrix(1.00, 0.00, -0.00, -1.00, 354.7, 161.6)">e</text><text xml:space="preserve" font-family="Helvetica,Helvetica" font-size="29.0" fill="#000000" transform="matrix(1.00, 0.00, -0.00, -1.00, 370.9, 161.6)">s</text><text xml:space="preserve" font-family="Helvetica,Helvetica" font-size="29.0" fill="#000000" transform="matrix(1.00, 0.00, -0.00, -1.00, 385.4, 161.6)"> </text><text xml:space="preserve" font-family="Helvetica,Helvetica" font-size="29.0" fill="#000000" transform="matrix(1.00, 0.00, -0.00, -1.00, 393.4, 161.6)">t</text><text xml:space="preserve" font-family="Helvetica,Helvetica" font-size="29.0" fill="#000000" transform="matrix(1.00, 0.00, -0.00, -1.00, 401.5, 161.6)">h</text><text xml:space="preserve" font-family="Helvetica,Helvetica" font-size="29.0" fill="#000000" transform="matrix(1.00, 0.00, -0.00, -1.00, 417.6, 161.6)">a</text><text xml:space="preserve" font-family="Helvetica,Helvetica" font-size="29.0" fill="#000000" transform="matrix(1.00, 0.00, -0.00, -1.00, 433.7, 161.6)">t</text><text xml:space="preserve" font-family="Helvetica,Helvetica" font-size="29.0" fill="#000000" transform="matrix(1.00, 0.00, -0.00, -1.00, 441.8, 161.6)"> </text><text xml:space="preserve" font-family="Helvetica,Helvetica" font-size="29.0" fill="#000000" transform="matrix(1.00, 0.00, -0.00, -1.00, 83.9, 126.6)">m</text><text xml:space="preserve" font-family="Helvetica,Helvetica" font-size="29.0" fill="#000000" transform="matrix(1.00, 0.00, -0.00, -1.00, 108.0, 126.6)">a</text><text xml:space="preserve" font-family="Helvetica,Helvetica" font-size="29.0" fill="#000000" transform="matrix(1.00, 0.00, -0.00, -1.00, 124.2, 126.6)">t</text><text xml:space="preserve" font-family="Helvetica,Helvetica" font-size="29.0" fill="#000000" transform="matrix(1.00, 0.00, -0.00, -1.00, 132.2, 126.6)">c</text><text xml:space="preserve" font-family="Helvetica,Helvetica" font-size="29.0" fill="#000000" transform="matrix(1.00, 0.00, -0.00, -1.00, 146.7, 126.6)">h</text><text xml:space="preserve" font-family="Helvetica,Helvetica" font-size="29.0" fill="#000000" transform="matrix(1.00, 0.00, -0.00, -1.00, 162.8, 126.6)"> </text><text xml:space="preserve" font-family="Helvetica,Helvetica" font-size="29.0" fill="#000000" transform="matrix(1.00, 0.00, -0.00, -1.00, 170.9, 126.6)">e</text><text xml:space="preserve" font-family="Helvetica,Helvetica" font-size="29.0" fill="#000000" transform="matrix(1.00, 0.00, -0.00, -1.00, 187.0, 126.6)">a</text><text xml:space="preserve" font-family="Helvetica,Helvetica" font-size="29.0" fill="#000000" transform="matrix(1.00, 0.00, -0.00, -1.00, 203.2, 126.6)">c</text><text xml:space="preserve" font-family="Helvetica,Helvetica" font-size="29.0" fill="#000000" transform="matrix(1.00, 0.00, -0.00, -1.00, 217.7, 126.6)">h</text><text xml:space="preserve" font-family="Helvetica,Helvetica" font-size="29.0" fill="#000000" transform="matrix(1.00, 0.00, -0.00, -1.00, 233.8, 126.6)"> </text><text xml:space="preserve" font-family="Helvetica,Helvetica" font-size="29.0" fill="#000000" transform="matrix(1.00, 0.00, -0.00, -1.00, 241.9, 126.6)">g</text><text xml:space="preserve" font-family="Helvetica,Helvetica" font-size="29.0" fill="#000000" transform="matrix(1.00, 0.00, -0.00, -1.00, 258.0, 126.6)">e</text><text xml:space="preserve" font-family="Helvetica,Helvetica" font-size="29.0" fill="#000000" transform="matrix(1.00, 0.00, -0.00, -1.00, 274.1, 126.6)">n</text><text xml:space="preserve" font-family="Helvetica,Helvetica" font-size="29.0" fill="#000000" transform="matrix(1.00, 0.00, -0.00, -1.00, 290.3, 126.6)">r</text><text xml:space="preserve" font-family="Helvetica,Helvetica" font-size="29.0" fill="#000000" transform="matrix(1.00, 0.00, -0.00, -1.00, 299.9, 126.6)">e</text><text xml:space="preserve" font-family="Helvetica,Helvetica" font-size="29.0" fill="#000000" transform="matrix(1.00, 0.00, -0.00, -1.00, 316.0, 126.6)">’</text><text xml:space="preserve" font-family="Helvetica,Helvetica" font-size="29.0" fill="#000000" transform="matrix(1.00, 0.00, -0.00, -1.00, 322.0, 126.6)">s</text><text xml:space="preserve" font-family="Helvetica,Helvetica" font-size="29.0" fill="#000000" transform="matrix(1.00, 0.00, -0.00, -1.00, 336.5, 126.6)"> </text><text xml:space="preserve" font-family="Helvetica,Helvetica" font-size="29.0" fill="#000000" transform="matrix(1.00, 0.00, -0.00, -1.00, 344.5, 126.6)">a</text><text xml:space="preserve" font-family="Helvetica,Helvetica" font-size="29.0" fill="#000000" transform="matrix(1.00, 0.00, -0.00, -1.00, 360.7, 126.6)">d</text><text xml:space="preserve" font-family="Helvetica,Helvetica" font-size="29.0" fill="#000000" transform="matrix(1.00, 0.00, -0.00, -1.00, 376.8, 126.6)">j</text><text xml:space="preserve" font-family="Helvetica,Helvetica" font-size="29.0" fill="#000000" transform="matrix(1.00, 0.00, -0.00, -1.00, 383.3, 126.6)">e</text><text xml:space="preserve" font-family="Helvetica,Helvetica" font-size="29.0" fill="#000000" transform="matrix(1.00, 0.00, -0.00, -1.00, 399.4, 126.6)">c</text><text xml:space="preserve" font-family="Helvetica,Helvetica" font-size="29.0" fill="#000000" transform="matrix(1.00, 0.00, -0.00, -1.00, 413.9, 126.6)">t</text><text xml:space="preserve" font-family="Helvetica,Helvetica" font-size="29.0" fill="#000000" transform="matrix(1.00, 0.00, -0.00, -1.00, 421.9, 126.6)">i</text><text xml:space="preserve" font-family="Helvetica,Helvetica" font-size="29.0" fill="#000000" transform="matrix(1.00, 0.00, -0.00, -1.00, 428.4, 126.6)">v</text><text xml:space="preserve" font-family="Helvetica,Helvetica" font-size="29.0" fill="#000000" transform="matrix(1.00, 0.00, -0.00, -1.00, 442.9, 126.6)">e</text><text xml:space="preserve" font-family="Helvetica,Helvetica" font-size="29.0" fill="#000000" transform="matrix(1.00, 0.00, -0.00, -1.00, 459.0, 126.6)">s</text><image xlink:href="534B3A056A80F741CE9725167D6B2819.png" width="369.00" height="137.00" transform="matrix(0.49, 0.00, -0.00, -0.49, 459.0, 622.0)"></image><image xlink:href="174DDFCD8D6B4FEBBE7ACB0666C51360.png" width="126.00" height="35.00" transform="matrix(1.10, 0.00, -0.00, -1.11, 629.0, 557.0)"></image><image xlink:href="325831221ED0FFABE3862DD351350CD3.png" width="369.00" height="137.00" transform="matrix(0.56, 0.00, -0.00, -0.56, 764.0, 642.0)"></image><image xlink:href="612301BF463C18F018B3DF74E4445DF5.png" width="273.00" height="185.00" transform="matrix(0.66, 0.00, -0.00, -0.65, 609.0, 492.0)"></image><image xlink:href="A19B59B0E77D8540ADF89DD092F1BAEC.png" width="421.00" height="120.00" transform="matrix(0.64, 0.00, -0.00, -0.64, 564.0, 366.0)"></image><text xml:space="preserve" font-family="Helvetica-Light,Helvetica" font-size="60.0" fill="#000000" transform="matrix(1.00, 0.00, -0.00, -1.00, 365.3, 698.9)">A</text><text xml:space="preserve" font-family="Helvetica-Light,Helvetica" font-size="60.0" fill="#000000" transform="matrix(1.00, 0.00, -0.00, -1.00, 405.3, 698.9)">t</text><text xml:space="preserve" font-family="Helvetica-Light,Helvetica" font-size="60.0" fill="#000000" transform="matrix(1.00, 0.00, -0.00, -1.00, 422.0, 698.9)"> </text><text xml:space="preserve" font-family="Helvetica-Light,Helvetica" font-size="60.0" fill="#000000" transform="matrix(1.00, 0.00, -0.00, -1.00, 438.6, 698.9)">R</text><text xml:space="preserve" font-family="Helvetica-Light,Helvetica" font-size="60.0" fill="#000000" transform="matrix(1.00, 0.00, -0.00, -1.00, 478.7, 698.9)">u</text><text xml:space="preserve" font-family="Helvetica-Light,Helvetica" font-size="60.0" fill="#000000" transform="matrix(1.00, 0.00, -0.00, -1.00, 512.0, 698.9)">n</text><text xml:space="preserve" font-family="Helvetica-Light,Helvetica" font-size="60.0" fill="#000000" transform="matrix(1.00, 0.00, -0.00, -1.00, 545.4, 698.9)">t</text><text xml:space="preserve" font-family="Helvetica-Light,Helvetica" font-size="60.0" fill="#000000" transform="matrix(1.00, 0.00, -0.00, -1.00, 562.1, 698.9)">i</text><text xml:space="preserve" font-family="Helvetica-Light,Helvetica" font-size="60.0" fill="#000000" transform="matrix(1.00, 0.00, -0.00, -1.00, 575.4, 698.9)">m</text><text xml:space="preserve" font-family="Helvetica-Light,Helvetica" font-size="60.0" fill="#000000" transform="matrix(1.00, 0.00, -0.00, -1.00, 625.4, 698.9)">e</text></g></svg>